<svg xmlns="http://www.w3.org/2000/svg" viewBox="0 0 1100 190" width="1100" height="190" role="img" aria-label="eeg-affect-honest-negatives — SIX PRE-REGISTERED SPIKES · NEGATIVE RESULTS, REPORTED AS SUCH">
  <defs>
    <linearGradient id="tr" x1="0" y1="0" x2="1" y2="0">
      <stop offset="0%" stop-color="#F43F5E"/><stop offset="55%" stop-color="#D97706"/><stop offset="100%" stop-color="#F43F5E"/>
    </linearGradient>
    <linearGradient id="fd" x1="0" y1="0" x2="1" y2="0">
      <stop offset="0%" stop-color="#0D1117" stop-opacity="1"/><stop offset="10%" stop-color="#0D1117" stop-opacity="0"/>
      <stop offset="90%" stop-color="#0D1117" stop-opacity="0"/><stop offset="100%" stop-color="#0D1117" stop-opacity="1"/>
    </linearGradient>
    <radialGradient id="halo" cx="50%" cy="30%" r="60%">
      <stop offset="0%" stop-color="#F43F5E" stop-opacity="0.17"/>
      <stop offset="100%" stop-color="#F43F5E" stop-opacity="0"/>
    </radialGradient>
    <filter id="gl" x="-50%" y="-50%" width="200%" height="200%">
      <feGaussianBlur stdDeviation="3.5" result="b"/><feMerge><feMergeNode in="b"/><feMergeNode in="SourceGraphic"/></feMerge>
    </filter>
    <clipPath id="cp"><rect width="1100" height="190" rx="14"/></clipPath>
  </defs>
  <g clip-path="url(#cp)">
    <rect width="1100" height="190" fill="#0D1117"/>
    <rect width="1100" height="190" fill="url(#halo)"/>
    <g stroke="#F43F5E" stroke-opacity="0.06" stroke-width="1"><line x1="0" y1="0" x2="0" y2="190"/><line x1="55" y1="0" x2="55" y2="190"/><line x1="110" y1="0" x2="110" y2="190"/><line x1="165" y1="0" x2="165" y2="190"/><line x1="220" y1="0" x2="220" y2="190"/><line x1="275" y1="0" x2="275" y2="190"/><line x1="330" y1="0" x2="330" y2="190"/><line x1="385" y1="0" x2="385" y2="190"/><line x1="440" y1="0" x2="440" y2="190"/><line x1="495" y1="0" x2="495" y2="190"/><line x1="550" y1="0" x2="550" y2="190"/><line x1="605" y1="0" x2="605" y2="190"/><line x1="660" y1="0" x2="660" y2="190"/><line x1="715" y1="0" x2="715" y2="190"/><line x1="770" y1="0" x2="770" y2="190"/><line x1="825" y1="0" x2="825" y2="190"/><line x1="880" y1="0" x2="880" y2="190"/><line x1="935" y1="0" x2="935" y2="190"/><line x1="990" y1="0" x2="990" y2="190"/><line x1="1045" y1="0" x2="1045" y2="190"/><line x1="1100" y1="0" x2="1100" y2="190"/></g>
    <path d="M 0.0 152.0 Q 4.6 151.8 6.9 151.7 Q 9.2 151.6 11.5 151.3 Q 13.8 150.9 16.1 149.7 Q 18.4 148.6 20.7 146.2 Q 23.0 143.9 25.3 140.0 Q 27.6 136.1 29.9 131.4 Q 32.2 126.8 34.5 123.7 Q 36.8 120.5 39.1 120.1 Q 41.4 119.8 43.7 122.4 Q 46.0 125.1 48.3 129.5 Q 50.6 133.8 52.9 137.9 Q 55.2 141.9 57.5 144.7 Q 59.8 147.5 62.1 149.0 Q 64.4 150.6 66.7 151.3 Q 69.0 152.1 71.3 151.9 Q 73.6 151.7 75.9 149.9 Q 78.2 148.0 80.5 146.1 Q 82.8 144.2 85.1 142.7 Q 87.4 141.2 89.7 140.7 Q 92.1 140.2 94.4 140.3 Q 96.7 140.4 99.0 141.5 Q 101.3 142.5 103.6 143.6 Q 105.9 144.7 108.2 145.8 Q 110.5 146.9 112.8 147.8 Q 115.1 148.7 117.4 149.4 Q 119.7 150.1 122.0 150.2 Q 124.3 150.2 126.6 150.3 Q 128.9 150.3 131.2 150.3 Q 133.5 150.3 135.8 150.5 Q 138.1 150.6 140.4 150.5 Q 142.7 150.4 145.0 150.4 Q 147.3 150.5 149.6 150.4 Q 151.9 150.4 154.2 150.2 Q 156.5 150.0 158.8 150.2 Q 161.1 150.4 163.4 150.3 Q 165.7 150.2 168.0 150.1 Q 170.3 150.0 172.6 150.1 Q 174.9 150.2 177.2 150.2 Q 179.5 150.1 181.8 150.1 Q 184.1 150.1 186.4 150.1 Q 188.7 150.1 191.0 150.2 Q 193.3 150.3 195.6 150.2 Q 197.9 150.1 200.2 149.9 Q 202.5 149.8 204.8 150.1 Q 207.1 150.4 209.4 150.1 Q 211.7 149.9 214.0 150.0 Q 216.3 150.0 218.6 150.1 Q 220.9 150.2 223.2 149.9 Q 225.5 149.6 227.8 149.6 Q 230.1 149.5 232.4 149.2 Q 234.7 148.9 237.0 147.5 Q 239.3 146.1 241.6 143.4 Q 243.9 140.8 246.2 136.8 Q 248.5 132.9 250.8 128.4 Q 253.1 123.9 255.4 121.2 Q 257.7 118.5 260.0 118.7 Q 262.3 119.0 264.6 122.2 Q 266.9 125.4 269.2 130.1 Q 271.5 134.8 273.8 138.5 Q 276.2 142.2 278.5 144.8 Q 280.8 147.4 283.1 148.8 Q 285.4 150.3 287.7 151.1 Q 290.0 151.9 292.3 151.2 Q 294.6 150.4 296.9 148.5 Q 299.2 146.6 301.5 144.6 Q 303.8 142.6 306.1 141.3 Q 308.4 140.1 310.7 140.0 Q 313.0 139.9 315.3 140.3 Q 317.6 140.8 319.9 141.7 Q 322.2 142.6 324.5 144.2 Q 326.8 145.7 329.1 146.7 Q 331.4 147.7 333.7 148.4 Q 336.0 149.2 338.3 149.6 Q 340.6 149.9 342.9 150.2 Q 345.2 150.5 347.5 150.7 Q 349.8 151.0 352.1 151.0 Q 354.4 151.1 356.7 151.1 Q 359.0 151.2 361.3 151.0 Q 363.6 150.9 365.9 151.1 Q 368.2 151.3 370.5 151.3 Q 372.8 151.4 375.1 151.3 Q 377.4 151.3 379.7 151.4 Q 382.0 151.4 384.3 151.5 Q 386.6 151.5 388.9 151.6 Q 391.2 151.8 393.5 151.7 Q 395.8 151.6 398.1 151.7 Q 400.4 151.8 402.7 151.6 Q 405.0 151.5 407.3 151.6 Q 409.6 151.7 411.9 151.8 Q 414.2 151.9 416.5 151.8 Q 418.8 151.8 421.1 151.9 Q 423.4 152.1 425.7 152.0 Q 428.0 151.9 430.3 152.0 Q 432.6 152.1 434.9 152.1 Q 437.2 152.1 439.5 152.3 Q 441.8 152.5 444.1 152.3 Q 446.4 152.1 448.7 152.2 Q 451.0 152.2 453.3 151.7 Q 455.6 151.1 457.9 149.5 Q 460.3 147.8 462.6 145.0 Q 464.9 142.1 467.2 137.8 Q 469.5 133.5 471.8 129.1 Q 474.1 124.7 476.4 122.7 Q 478.7 120.8 481.0 121.8 Q 483.3 122.8 485.6 126.4 Q 487.9 130.1 490.2 134.5 Q 492.5 139.0 494.8 142.6 Q 497.1 146.2 499.4 148.5 Q 501.7 150.8 504.0 152.1 Q 506.3 153.4 508.6 153.8 Q 510.9 154.3 513.2 153.5 Q 515.5 152.7 517.8 150.7 Q 520.1 148.6 522.4 146.8 Q 524.7 144.9 527.0 144.0 Q 529.3 143.1 531.6 142.8 Q 533.9 142.5 536.2 143.2 Q 538.5 144.0 540.8 144.9 Q 543.1 145.9 545.4 147.2 Q 547.7 148.6 550.0 149.7 Q 552.3 150.7 554.6 151.5 Q 556.9 152.3 559.2 152.7 Q 561.5 153.1 563.8 153.5 Q 566.1 153.9 568.4 153.9 Q 570.7 153.9 573.0 153.8 Q 575.3 153.7 577.6 153.9 Q 579.9 154.2 582.2 153.9 Q 584.5 153.6 586.8 153.9 Q 589.1 154.2 591.4 153.9 Q 593.7 153.7 596.0 153.9 Q 598.3 154.0 600.6 153.9 Q 602.9 153.7 605.2 153.8 Q 607.5 153.9 609.8 154.0 Q 612.1 154.2 614.4 153.9 Q 616.7 153.7 619.0 153.7 Q 621.3 153.6 623.6 153.8 Q 625.9 153.9 628.2 154.0 Q 630.5 154.0 632.8 154.0 Q 635.1 154.0 637.4 154.0 Q 639.7 154.1 642.1 153.9 Q 644.4 153.7 646.7 153.9 Q 649.0 154.0 651.3 154.0 Q 653.6 153.9 655.9 154.0 Q 658.2 154.1 660.5 154.0 Q 662.8 154.0 665.1 154.0 Q 667.4 154.0 669.7 153.5 Q 672.0 153.0 674.3 152.3 Q 676.6 151.7 678.9 149.8 Q 681.2 147.9 683.5 144.8 Q 685.8 141.6 688.1 137.3 Q 690.4 133.0 692.7 128.9 Q 695.0 124.8 697.3 123.2 Q 699.6 121.5 701.9 123.1 Q 704.2 124.7 706.5 128.7 Q 708.8 132.7 711.1 137.1 Q 713.4 141.4 715.7 144.8 Q 718.0 148.1 720.3 150.1 Q 722.6 152.0 724.9 153.0 Q 727.2 153.9 729.5 154.3 Q 731.8 154.7 734.1 153.4 Q 736.4 152.2 738.7 150.0 Q 741.0 147.8 743.3 145.9 Q 745.6 144.1 747.9 143.4 Q 750.2 142.8 752.5 142.7 Q 754.8 142.5 757.1 143.2 Q 759.4 144.0 761.7 145.3 Q 764.0 146.5 766.3 147.5 Q 768.6 148.4 770.9 149.5 Q 773.2 150.5 775.5 151.1 Q 777.8 151.7 780.1 152.1 Q 782.4 152.5 784.7 152.5 Q 787.0 152.6 789.3 152.7 Q 791.6 152.8 793.9 152.8 Q 796.2 152.7 798.5 152.8 Q 800.8 152.9 803.1 152.8 Q 805.4 152.8 807.7 152.5 Q 810.0 152.3 812.3 152.4 Q 814.6 152.5 816.9 152.4 Q 819.2 152.3 821.5 152.3 Q 823.8 152.3 826.2 152.3 Q 828.5 152.3 830.8 152.3 Q 833.1 152.3 835.4 152.1 Q 837.7 152.0 840.0 152.1 Q 842.3 152.1 844.6 152.1 Q 846.9 152.0 849.2 152.0 Q 851.5 151.9 853.8 151.8 Q 856.1 151.6 858.4 151.6 Q 860.7 151.7 863.0 151.7 Q 865.3 151.7 867.6 151.7 Q 869.9 151.8 872.2 151.8 Q 874.5 151.9 876.8 151.6 Q 879.1 151.3 881.4 151.3 Q 883.7 151.2 886.0 151.2 Q 888.3 151.2 890.6 150.8 Q 892.9 150.4 895.2 149.4 Q 897.5 148.5 899.8 146.4 Q 902.1 144.3 904.4 140.7 Q 906.7 137.2 909.0 132.8 Q 911.3 128.5 913.6 124.5 Q 915.9 120.6 918.2 119.8 Q 920.5 119.1 922.8 121.1 Q 925.1 123.1 927.4 127.3 Q 929.7 131.6 932.0 135.7 Q 934.3 139.9 936.6 142.8 Q 938.9 145.7 941.2 147.5 Q 943.5 149.4 945.8 150.6 Q 948.1 151.9 950.4 151.8 Q 952.7 151.8 955.0 150.0 Q 957.3 148.2 959.6 146.3 Q 961.9 144.4 964.2 142.7 Q 966.5 141.0 968.8 140.2 Q 971.1 139.4 973.4 139.8 Q 975.7 140.2 978.0 141.0 Q 980.3 141.9 982.6 142.9 Q 984.9 143.9 987.2 145.1 Q 989.5 146.3 991.8 147.2 Q 994.1 148.1 996.4 148.7 Q 998.7 149.2 1001.0 149.6 Q 1003.3 150.0 1005.6 150.2 Q 1007.9 150.3 1010.3 150.2 Q 1012.6 150.2 1014.9 150.2 Q 1017.2 150.3 1019.5 150.4 Q 1021.8 150.4 1024.1 150.2 Q 1026.4 150.0 1028.7 150.1 Q 1031.0 150.1 1033.3 150.1 Q 1035.6 150.0 1037.9 150.1 Q 1040.2 150.3 1042.5 150.2 Q 1044.8 150.2 1047.1 150.2 Q 1049.4 150.3 1051.7 150.2 Q 1054.0 150.2 1056.3 150.1 Q 1058.6 150.0 1060.9 150.1 Q 1063.2 150.2 1065.5 150.1 Q 1067.8 150.0 1070.1 150.0 Q 1072.4 150.0 1074.7 149.8 Q 1077.0 149.7 1079.3 150.0 Q 1081.6 150.4 1083.9 150.1 Q 1086.2 149.9 1088.5 150.0 Q 1090.8 150.1 1093.1 150.1 Q 1095.4 150.1 1097.7 150.3 T 1100.0 150.4" fill="none" stroke="#F43F5E" stroke-opacity="0.20" stroke-width="1.8" stroke-linecap="round"/>
    <path d="M 0.0 152.0 Q 4.6 151.8 6.9 151.7 Q 9.2 151.6 11.5 151.3 Q 13.8 150.9 16.1 149.7 Q 18.4 148.6 20.7 146.2 Q 23.0 143.9 25.3 140.0 Q 27.6 136.1 29.9 131.4 Q 32.2 126.8 34.5 123.7 Q 36.8 120.5 39.1 120.1 Q 41.4 119.8 43.7 122.4 Q 46.0 125.1 48.3 129.5 Q 50.6 133.8 52.9 137.9 Q 55.2 141.9 57.5 144.7 Q 59.8 147.5 62.1 149.0 Q 64.4 150.6 66.7 151.3 Q 69.0 152.1 71.3 151.9 Q 73.6 151.7 75.9 149.9 Q 78.2 148.0 80.5 146.1 Q 82.8 144.2 85.1 142.7 Q 87.4 141.2 89.7 140.7 Q 92.1 140.2 94.4 140.3 Q 96.7 140.4 99.0 141.5 Q 101.3 142.5 103.6 143.6 Q 105.9 144.7 108.2 145.8 Q 110.5 146.9 112.8 147.8 Q 115.1 148.7 117.4 149.4 Q 119.7 150.1 122.0 150.2 Q 124.3 150.2 126.6 150.3 Q 128.9 150.3 131.2 150.3 Q 133.5 150.3 135.8 150.5 Q 138.1 150.6 140.4 150.5 Q 142.7 150.4 145.0 150.4 Q 147.3 150.5 149.6 150.4 Q 151.9 150.4 154.2 150.2 Q 156.5 150.0 158.8 150.2 Q 161.1 150.4 163.4 150.3 Q 165.7 150.2 168.0 150.1 Q 170.3 150.0 172.6 150.1 Q 174.9 150.2 177.2 150.2 Q 179.5 150.1 181.8 150.1 Q 184.1 150.1 186.4 150.1 Q 188.7 150.1 191.0 150.2 Q 193.3 150.3 195.6 150.2 Q 197.9 150.1 200.2 149.9 Q 202.5 149.8 204.8 150.1 Q 207.1 150.4 209.4 150.1 Q 211.7 149.9 214.0 150.0 Q 216.3 150.0 218.6 150.1 Q 220.9 150.2 223.2 149.9 Q 225.5 149.6 227.8 149.6 Q 230.1 149.5 232.4 149.2 Q 234.7 148.9 237.0 147.5 Q 239.3 146.1 241.6 143.4 Q 243.9 140.8 246.2 136.8 Q 248.5 132.9 250.8 128.4 Q 253.1 123.9 255.4 121.2 Q 257.7 118.5 260.0 118.7 Q 262.3 119.0 264.6 122.2 Q 266.9 125.4 269.2 130.1 Q 271.5 134.8 273.8 138.5 Q 276.2 142.2 278.5 144.8 Q 280.8 147.4 283.1 148.8 Q 285.4 150.3 287.7 151.1 Q 290.0 151.9 292.3 151.2 Q 294.6 150.4 296.9 148.5 Q 299.2 146.6 301.5 144.6 Q 303.8 142.6 306.1 141.3 Q 308.4 140.1 310.7 140.0 Q 313.0 139.9 315.3 140.3 Q 317.6 140.8 319.9 141.7 Q 322.2 142.6 324.5 144.2 Q 326.8 145.7 329.1 146.7 Q 331.4 147.7 333.7 148.4 Q 336.0 149.2 338.3 149.6 Q 340.6 149.9 342.9 150.2 Q 345.2 150.5 347.5 150.7 Q 349.8 151.0 352.1 151.0 Q 354.4 151.1 356.7 151.1 Q 359.0 151.2 361.3 151.0 Q 363.6 150.9 365.9 151.1 Q 368.2 151.3 370.5 151.3 Q 372.8 151.4 375.1 151.3 Q 377.4 151.3 379.7 151.4 Q 382.0 151.4 384.3 151.5 Q 386.6 151.5 388.9 151.6 Q 391.2 151.8 393.5 151.7 Q 395.8 151.6 398.1 151.7 Q 400.4 151.8 402.7 151.6 Q 405.0 151.5 407.3 151.6 Q 409.6 151.7 411.9 151.8 Q 414.2 151.9 416.5 151.8 Q 418.8 151.8 421.1 151.9 Q 423.4 152.1 425.7 152.0 Q 428.0 151.9 430.3 152.0 Q 432.6 152.1 434.9 152.1 Q 437.2 152.1 439.5 152.3 Q 441.8 152.5 444.1 152.3 Q 446.4 152.1 448.7 152.2 Q 451.0 152.2 453.3 151.7 Q 455.6 151.1 457.9 149.5 Q 460.3 147.8 462.6 145.0 Q 464.9 142.1 467.2 137.8 Q 469.5 133.5 471.8 129.1 Q 474.1 124.7 476.4 122.7 Q 478.7 120.8 481.0 121.8 Q 483.3 122.8 485.6 126.4 Q 487.9 130.1 490.2 134.5 Q 492.5 139.0 494.8 142.6 Q 497.1 146.2 499.4 148.5 Q 501.7 150.8 504.0 152.1 Q 506.3 153.4 508.6 153.8 Q 510.9 154.3 513.2 153.5 Q 515.5 152.7 517.8 150.7 Q 520.1 148.6 522.4 146.8 Q 524.7 144.9 527.0 144.0 Q 529.3 143.1 531.6 142.8 Q 533.9 142.5 536.2 143.2 Q 538.5 144.0 540.8 144.9 Q 543.1 145.9 545.4 147.2 Q 547.7 148.6 550.0 149.7 Q 552.3 150.7 554.6 151.5 Q 556.9 152.3 559.2 152.7 Q 561.5 153.1 563.8 153.5 Q 566.1 153.9 568.4 153.9 Q 570.7 153.9 573.0 153.8 Q 575.3 153.7 577.6 153.9 Q 579.9 154.2 582.2 153.9 Q 584.5 153.6 586.8 153.9 Q 589.1 154.2 591.4 153.9 Q 593.7 153.7 596.0 153.9 Q 598.3 154.0 600.6 153.9 Q 602.9 153.7 605.2 153.8 Q 607.5 153.9 609.8 154.0 Q 612.1 154.2 614.4 153.9 Q 616.7 153.7 619.0 153.7 Q 621.3 153.6 623.6 153.8 Q 625.9 153.9 628.2 154.0 Q 630.5 154.0 632.8 154.0 Q 635.1 154.0 637.4 154.0 Q 639.7 154.1 642.1 153.9 Q 644.4 153.7 646.7 153.9 Q 649.0 154.0 651.3 154.0 Q 653.6 153.9 655.9 154.0 Q 658.2 154.1 660.5 154.0 Q 662.8 154.0 665.1 154.0 Q 667.4 154.0 669.7 153.5 Q 672.0 153.0 674.3 152.3 Q 676.6 151.7 678.9 149.8 Q 681.2 147.9 683.5 144.8 Q 685.8 141.6 688.1 137.3 Q 690.4 133.0 692.7 128.9 Q 695.0 124.8 697.3 123.2 Q 699.6 121.5 701.9 123.1 Q 704.2 124.7 706.5 128.7 Q 708.8 132.7 711.1 137.1 Q 713.4 141.4 715.7 144.8 Q 718.0 148.1 720.3 150.1 Q 722.6 152.0 724.9 153.0 Q 727.2 153.9 729.5 154.3 Q 731.8 154.7 734.1 153.4 Q 736.4 152.2 738.7 150.0 Q 741.0 147.8 743.3 145.9 Q 745.6 144.1 747.9 143.4 Q 750.2 142.8 752.5 142.7 Q 754.8 142.5 757.1 143.2 Q 759.4 144.0 761.7 145.3 Q 764.0 146.5 766.3 147.5 Q 768.6 148.4 770.9 149.5 Q 773.2 150.5 775.5 151.1 Q 777.8 151.7 780.1 152.1 Q 782.4 152.5 784.7 152.5 Q 787.0 152.6 789.3 152.7 Q 791.6 152.8 793.9 152.8 Q 796.2 152.7 798.5 152.8 Q 800.8 152.9 803.1 152.8 Q 805.4 152.8 807.7 152.5 Q 810.0 152.3 812.3 152.4 Q 814.6 152.5 816.9 152.4 Q 819.2 152.3 821.5 152.3 Q 823.8 152.3 826.2 152.3 Q 828.5 152.3 830.8 152.3 Q 833.1 152.3 835.4 152.1 Q 837.7 152.0 840.0 152.1 Q 842.3 152.1 844.6 152.1 Q 846.9 152.0 849.2 152.0 Q 851.5 151.9 853.8 151.8 Q 856.1 151.6 858.4 151.6 Q 860.7 151.7 863.0 151.7 Q 865.3 151.7 867.6 151.7 Q 869.9 151.8 872.2 151.8 Q 874.5 151.9 876.8 151.6 Q 879.1 151.3 881.4 151.3 Q 883.7 151.2 886.0 151.2 Q 888.3 151.2 890.6 150.8 Q 892.9 150.4 895.2 149.4 Q 897.5 148.5 899.8 146.4 Q 902.1 144.3 904.4 140.7 Q 906.7 137.2 909.0 132.8 Q 911.3 128.5 913.6 124.5 Q 915.9 120.6 918.2 119.8 Q 920.5 119.1 922.8 121.1 Q 925.1 123.1 927.4 127.3 Q 929.7 131.6 932.0 135.7 Q 934.3 139.9 936.6 142.8 Q 938.9 145.7 941.2 147.5 Q 943.5 149.4 945.8 150.6 Q 948.1 151.9 950.4 151.8 Q 952.7 151.8 955.0 150.0 Q 957.3 148.2 959.6 146.3 Q 961.9 144.4 964.2 142.7 Q 966.5 141.0 968.8 140.2 Q 971.1 139.4 973.4 139.8 Q 975.7 140.2 978.0 141.0 Q 980.3 141.9 982.6 142.9 Q 984.9 143.9 987.2 145.1 Q 989.5 146.3 991.8 147.2 Q 994.1 148.1 996.4 148.7 Q 998.7 149.2 1001.0 149.6 Q 1003.3 150.0 1005.6 150.2 Q 1007.9 150.3 1010.3 150.2 Q 1012.6 150.2 1014.9 150.2 Q 1017.2 150.3 1019.5 150.4 Q 1021.8 150.4 1024.1 150.2 Q 1026.4 150.0 1028.7 150.1 Q 1031.0 150.1 1033.3 150.1 Q 1035.6 150.0 1037.9 150.1 Q 1040.2 150.3 1042.5 150.2 Q 1044.8 150.2 1047.1 150.2 Q 1049.4 150.3 1051.7 150.2 Q 1054.0 150.2 1056.3 150.1 Q 1058.6 150.0 1060.9 150.1 Q 1063.2 150.2 1065.5 150.1 Q 1067.8 150.0 1070.1 150.0 Q 1072.4 150.0 1074.7 149.8 Q 1077.0 149.7 1079.3 150.0 Q 1081.6 150.4 1083.9 150.1 Q 1086.2 149.9 1088.5 150.0 Q 1090.8 150.1 1093.1 150.1 Q 1095.4 150.1 1097.7 150.3 T 1100.0 150.4" fill="none" stroke="url(#tr)" stroke-width="2.4" stroke-linecap="round" filter="url(#gl)"
          stroke-dasharray="300 1291" stroke-dashoffset="1591">
      <animate attributeName="stroke-dashoffset" from="1591" to="0" dur="6s" repeatCount="indefinite"/>
    </path>
    <circle r="4" fill="#D97706" filter="url(#gl)">
      <animateMotion dur="4.87s" repeatCount="indefinite" path="M 0.0 152.0 Q 4.6 151.8 6.9 151.7 Q 9.2 151.6 11.5 151.3 Q 13.8 150.9 16.1 149.7 Q 18.4 148.6 20.7 146.2 Q 23.0 143.9 25.3 140.0 Q 27.6 136.1 29.9 131.4 Q 32.2 126.8 34.5 123.7 Q 36.8 120.5 39.1 120.1 Q 41.4 119.8 43.7 122.4 Q 46.0 125.1 48.3 129.5 Q 50.6 133.8 52.9 137.9 Q 55.2 141.9 57.5 144.7 Q 59.8 147.5 62.1 149.0 Q 64.4 150.6 66.7 151.3 Q 69.0 152.1 71.3 151.9 Q 73.6 151.7 75.9 149.9 Q 78.2 148.0 80.5 146.1 Q 82.8 144.2 85.1 142.7 Q 87.4 141.2 89.7 140.7 Q 92.1 140.2 94.4 140.3 Q 96.7 140.4 99.0 141.5 Q 101.3 142.5 103.6 143.6 Q 105.9 144.7 108.2 145.8 Q 110.5 146.9 112.8 147.8 Q 115.1 148.7 117.4 149.4 Q 119.7 150.1 122.0 150.2 Q 124.3 150.2 126.6 150.3 Q 128.9 150.3 131.2 150.3 Q 133.5 150.3 135.8 150.5 Q 138.1 150.6 140.4 150.5 Q 142.7 150.4 145.0 150.4 Q 147.3 150.5 149.6 150.4 Q 151.9 150.4 154.2 150.2 Q 156.5 150.0 158.8 150.2 Q 161.1 150.4 163.4 150.3 Q 165.7 150.2 168.0 150.1 Q 170.3 150.0 172.6 150.1 Q 174.9 150.2 177.2 150.2 Q 179.5 150.1 181.8 150.1 Q 184.1 150.1 186.4 150.1 Q 188.7 150.1 191.0 150.2 Q 193.3 150.3 195.6 150.2 Q 197.9 150.1 200.2 149.9 Q 202.5 149.8 204.8 150.1 Q 207.1 150.4 209.4 150.1 Q 211.7 149.9 214.0 150.0 Q 216.3 150.0 218.6 150.1 Q 220.9 150.2 223.2 149.9 Q 225.5 149.6 227.8 149.6 Q 230.1 149.5 232.4 149.2 Q 234.7 148.9 237.0 147.5 Q 239.3 146.1 241.6 143.4 Q 243.9 140.8 246.2 136.8 Q 248.5 132.9 250.8 128.4 Q 253.1 123.9 255.4 121.2 Q 257.7 118.5 260.0 118.7 Q 262.3 119.0 264.6 122.2 Q 266.9 125.4 269.2 130.1 Q 271.5 134.8 273.8 138.5 Q 276.2 142.2 278.5 144.8 Q 280.8 147.4 283.1 148.8 Q 285.4 150.3 287.7 151.1 Q 290.0 151.9 292.3 151.2 Q 294.6 150.4 296.9 148.5 Q 299.2 146.6 301.5 144.6 Q 303.8 142.6 306.1 141.3 Q 308.4 140.1 310.7 140.0 Q 313.0 139.9 315.3 140.3 Q 317.6 140.8 319.9 141.7 Q 322.2 142.6 324.5 144.2 Q 326.8 145.7 329.1 146.7 Q 331.4 147.7 333.7 148.4 Q 336.0 149.2 338.3 149.6 Q 340.6 149.9 342.9 150.2 Q 345.2 150.5 347.5 150.7 Q 349.8 151.0 352.1 151.0 Q 354.4 151.1 356.7 151.1 Q 359.0 151.2 361.3 151.0 Q 363.6 150.9 365.9 151.1 Q 368.2 151.3 370.5 151.3 Q 372.8 151.4 375.1 151.3 Q 377.4 151.3 379.7 151.4 Q 382.0 151.4 384.3 151.5 Q 386.6 151.5 388.9 151.6 Q 391.2 151.8 393.5 151.7 Q 395.8 151.6 398.1 151.7 Q 400.4 151.8 402.7 151.6 Q 405.0 151.5 407.3 151.6 Q 409.6 151.7 411.9 151.8 Q 414.2 151.9 416.5 151.8 Q 418.8 151.8 421.1 151.9 Q 423.4 152.1 425.7 152.0 Q 428.0 151.9 430.3 152.0 Q 432.6 152.1 434.9 152.1 Q 437.2 152.1 439.5 152.3 Q 441.8 152.5 444.1 152.3 Q 446.4 152.1 448.7 152.2 Q 451.0 152.2 453.3 151.7 Q 455.6 151.1 457.9 149.5 Q 460.3 147.8 462.6 145.0 Q 464.9 142.1 467.2 137.8 Q 469.5 133.5 471.8 129.1 Q 474.1 124.7 476.4 122.7 Q 478.7 120.8 481.0 121.8 Q 483.3 122.8 485.6 126.4 Q 487.9 130.1 490.2 134.5 Q 492.5 139.0 494.8 142.6 Q 497.1 146.2 499.4 148.5 Q 501.7 150.8 504.0 152.1 Q 506.3 153.4 508.6 153.8 Q 510.9 154.3 513.2 153.5 Q 515.5 152.7 517.8 150.7 Q 520.1 148.6 522.4 146.8 Q 524.7 144.9 527.0 144.0 Q 529.3 143.1 531.6 142.8 Q 533.9 142.5 536.2 143.2 Q 538.5 144.0 540.8 144.9 Q 543.1 145.9 545.4 147.2 Q 547.7 148.6 550.0 149.7 Q 552.3 150.7 554.6 151.5 Q 556.9 152.3 559.2 152.7 Q 561.5 153.1 563.8 153.5 Q 566.1 153.9 568.4 153.9 Q 570.7 153.9 573.0 153.8 Q 575.3 153.7 577.6 153.9 Q 579.9 154.2 582.2 153.9 Q 584.5 153.6 586.8 153.9 Q 589.1 154.2 591.4 153.9 Q 593.7 153.7 596.0 153.9 Q 598.3 154.0 600.6 153.9 Q 602.9 153.7 605.2 153.8 Q 607.5 153.9 609.8 154.0 Q 612.1 154.2 614.4 153.9 Q 616.7 153.7 619.0 153.7 Q 621.3 153.6 623.6 153.8 Q 625.9 153.9 628.2 154.0 Q 630.5 154.0 632.8 154.0 Q 635.1 154.0 637.4 154.0 Q 639.7 154.1 642.1 153.9 Q 644.4 153.7 646.7 153.9 Q 649.0 154.0 651.3 154.0 Q 653.6 153.9 655.9 154.0 Q 658.2 154.1 660.5 154.0 Q 662.8 154.0 665.1 154.0 Q 667.4 154.0 669.7 153.5 Q 672.0 153.0 674.3 152.3 Q 676.6 151.7 678.9 149.8 Q 681.2 147.9 683.5 144.8 Q 685.8 141.6 688.1 137.3 Q 690.4 133.0 692.7 128.9 Q 695.0 124.8 697.3 123.2 Q 699.6 121.5 701.9 123.1 Q 704.2 124.7 706.5 128.7 Q 708.8 132.7 711.1 137.1 Q 713.4 141.4 715.7 144.8 Q 718.0 148.1 720.3 150.1 Q 722.6 152.0 724.9 153.0 Q 727.2 153.9 729.5 154.3 Q 731.8 154.7 734.1 153.4 Q 736.4 152.2 738.7 150.0 Q 741.0 147.8 743.3 145.9 Q 745.6 144.1 747.9 143.4 Q 750.2 142.8 752.5 142.7 Q 754.8 142.5 757.1 143.2 Q 759.4 144.0 761.7 145.3 Q 764.0 146.5 766.3 147.5 Q 768.6 148.4 770.9 149.5 Q 773.2 150.5 775.5 151.1 Q 777.8 151.7 780.1 152.1 Q 782.4 152.5 784.7 152.5 Q 787.0 152.6 789.3 152.7 Q 791.6 152.8 793.9 152.8 Q 796.2 152.7 798.5 152.8 Q 800.8 152.9 803.1 152.8 Q 805.4 152.8 807.7 152.5 Q 810.0 152.3 812.3 152.4 Q 814.6 152.5 816.9 152.4 Q 819.2 152.3 821.5 152.3 Q 823.8 152.3 826.2 152.3 Q 828.5 152.3 830.8 152.3 Q 833.1 152.3 835.4 152.1 Q 837.7 152.0 840.0 152.1 Q 842.3 152.1 844.6 152.1 Q 846.9 152.0 849.2 152.0 Q 851.5 151.9 853.8 151.8 Q 856.1 151.6 858.4 151.6 Q 860.7 151.7 863.0 151.7 Q 865.3 151.7 867.6 151.7 Q 869.9 151.8 872.2 151.8 Q 874.5 151.9 876.8 151.6 Q 879.1 151.3 881.4 151.3 Q 883.7 151.2 886.0 151.2 Q 888.3 151.2 890.6 150.8 Q 892.9 150.4 895.2 149.4 Q 897.5 148.5 899.8 146.4 Q 902.1 144.3 904.4 140.7 Q 906.7 137.2 909.0 132.8 Q 911.3 128.5 913.6 124.5 Q 915.9 120.6 918.2 119.8 Q 920.5 119.1 922.8 121.1 Q 925.1 123.1 927.4 127.3 Q 929.7 131.6 932.0 135.7 Q 934.3 139.9 936.6 142.8 Q 938.9 145.7 941.2 147.5 Q 943.5 149.4 945.8 150.6 Q 948.1 151.9 950.4 151.8 Q 952.7 151.8 955.0 150.0 Q 957.3 148.2 959.6 146.3 Q 961.9 144.4 964.2 142.7 Q 966.5 141.0 968.8 140.2 Q 971.1 139.4 973.4 139.8 Q 975.7 140.2 978.0 141.0 Q 980.3 141.9 982.6 142.9 Q 984.9 143.9 987.2 145.1 Q 989.5 146.3 991.8 147.2 Q 994.1 148.1 996.4 148.7 Q 998.7 149.2 1001.0 149.6 Q 1003.3 150.0 1005.6 150.2 Q 1007.9 150.3 1010.3 150.2 Q 1012.6 150.2 1014.9 150.2 Q 1017.2 150.3 1019.5 150.4 Q 1021.8 150.4 1024.1 150.2 Q 1026.4 150.0 1028.7 150.1 Q 1031.0 150.1 1033.3 150.1 Q 1035.6 150.0 1037.9 150.1 Q 1040.2 150.3 1042.5 150.2 Q 1044.8 150.2 1047.1 150.2 Q 1049.4 150.3 1051.7 150.2 Q 1054.0 150.2 1056.3 150.1 Q 1058.6 150.0 1060.9 150.1 Q 1063.2 150.2 1065.5 150.1 Q 1067.8 150.0 1070.1 150.0 Q 1072.4 150.0 1074.7 149.8 Q 1077.0 149.7 1079.3 150.0 Q 1081.6 150.4 1083.9 150.1 Q 1086.2 149.9 1088.5 150.0 Q 1090.8 150.1 1093.1 150.1 Q 1095.4 150.1 1097.7 150.3 T 1100.0 150.4"/>
      <animate attributeName="r" values="3;5;3" dur="1s" repeatCount="indefinite"/>
    </circle>
    <rect width="1100" height="190" fill="url(#fd)"/>
    <!-- No fade-in on the text. Anything that snapshots the SVG at t=0 (social
         card previews, link unfurls, some markdown renderers) would capture an
         invisible title. The travelling trace carries the motion instead. -->
    <g transform="translate(275.9,72)" fill="#F8F9FA"><path d="M11.4 0.4Q8.2 0.4 5.9 -0.9Q3.6 -2.2 2.3 -4.6Q1.1 -7.1 1.1 -10.4V-10.4Q1.1 -13.8 2.3 -16.2Q3.6 -18.7 5.8 -20.0Q8.1 -21.4 11.2 -21.4Q14.2 -21.4 16.5 -20.1Q18.7 -18.8 19.9 -16.4Q21.1 -14.0 21.1 -10.9V-9.1H3.9V-12.7H18.4L15.7 -9.3V-11.5Q15.7 -13.4 15.2 -14.6Q14.6 -15.9 13.6 -16.5Q12.6 -17.1 11.2 -17.1Q9.9 -17.1 8.9 -16.5Q7.9 -15.8 7.3 -14.6Q6.7 -13.3 6.7 -11.5V-9.3Q6.7 -7.6 7.3 -6.4Q7.9 -5.1 8.9 -4.5Q10.0 -3.8 11.5 -3.8Q12.7 -3.8 13.5 -4.2Q14.4 -4.6 14.9 -5.1Q15.5 -5.7 15.7 -6.3L15.7 -6.4H20.9L20.9 -6.2Q20.7 -5.0 20.0 -3.9Q19.3 -2.7 18.1 -1.7Q17.0 -0.7 15.3 -0.2Q13.6 0.4 11.4 0.4Z M34.1 0.4Q30.9 0.4 28.6 -0.9Q26.3 -2.2 25.0 -4.6Q23.8 -7.1 23.8 -10.4V-10.4Q23.8 -13.8 25.0 -16.2Q26.3 -18.7 28.5 -20.0Q30.8 -21.4 33.9 -21.4Q36.9 -21.4 39.2 -20.1Q41.4 -18.8 42.6 -16.4Q43.8 -14.0 43.8 -10.9V-9.1H26.6V-12.7H41.1L38.4 -9.3V-11.5Q38.4 -13.4 37.9 -14.6Q37.3 -15.9 36.3 -16.5Q35.3 -17.1 34.0 -17.1Q32.6 -17.1 31.6 -16.5Q30.6 -15.8 30.0 -14.6Q29.4 -13.3 29.4 -11.5V-9.3Q29.4 -7.6 30.0 -6.4Q30.6 -5.1 31.7 -4.5Q32.7 -3.8 34.2 -3.8Q35.4 -3.8 36.2 -4.2Q37.1 -4.6 37.6 -5.1Q38.2 -5.7 38.4 -6.3L38.4 -6.4H43.7L43.6 -6.2Q43.4 -5.0 42.7 -3.9Q42.0 -2.7 40.8 -1.7Q39.7 -0.7 38.0 -0.2Q36.3 0.4 34.1 0.4Z M57.0 7.3Q54.2 7.3 52.0 6.5Q49.9 5.7 48.6 4.3Q47.4 3.0 47.1 1.3L47.1 1.1H52.6L52.7 1.3Q53.0 2.0 54.2 2.6Q55.3 3.2 57.1 3.2Q59.3 3.2 60.4 2.1Q61.6 1.1 61.6 -0.7V-3.9H61.4Q60.9 -2.8 60.0 -2.0Q59.0 -1.2 57.8 -0.7Q56.5 -0.3 55.0 -0.3Q52.4 -0.3 50.5 -1.5Q48.5 -2.8 47.5 -5.1Q46.5 -7.5 46.5 -10.7V-10.7Q46.5 -14.1 47.5 -16.4Q48.6 -18.8 50.5 -20.1Q52.4 -21.4 55.1 -21.4Q56.6 -21.4 57.8 -20.9Q59.0 -20.4 59.9 -19.5Q60.9 -18.6 61.4 -17.4H61.6V-20.9H67.3V-0.6Q67.3 1.7 66.0 3.5Q64.8 5.3 62.5 6.3Q60.2 7.3 57.0 7.3ZM57.0 -4.5Q58.4 -4.5 59.4 -5.2Q60.4 -6.0 61.0 -7.3Q61.6 -8.7 61.6 -10.6V-10.6Q61.6 -12.5 61.0 -13.8Q60.4 -15.2 59.4 -15.9Q58.3 -16.6 57.0 -16.6Q55.5 -16.6 54.5 -15.9Q53.4 -15.2 52.9 -13.8Q52.3 -12.5 52.3 -10.6V-10.6Q52.3 -8.7 52.9 -7.3Q53.4 -5.9 54.5 -5.2Q55.5 -4.5 57.0 -4.5Z M72.1 -9.0V-13.9H84.8V-9.0Z M95.9 0.3Q93.8 0.3 92.2 -0.5Q90.6 -1.3 89.7 -2.7Q88.8 -4.2 88.8 -6.0V-6.0Q88.8 -7.9 89.8 -9.3Q90.7 -10.7 92.6 -11.4Q94.4 -12.2 97.0 -12.4L105.1 -12.9V-9.4L97.8 -8.9Q96.2 -8.8 95.3 -8.1Q94.5 -7.4 94.5 -6.3V-6.3Q94.5 -5.1 95.4 -4.5Q96.2 -3.8 97.7 -3.8Q99.0 -3.8 100.0 -4.3Q101.0 -4.8 101.6 -5.7Q102.2 -6.6 102.2 -7.6V-14.0Q102.2 -15.4 101.3 -16.2Q100.4 -17.0 98.7 -17.0Q97.1 -17.0 96.2 -16.3Q95.2 -15.7 95.0 -14.7L95.0 -14.5H89.8L89.8 -14.7Q89.9 -16.7 91.1 -18.2Q92.2 -19.7 94.2 -20.5Q96.2 -21.4 99.0 -21.4Q101.7 -21.4 103.7 -20.5Q105.7 -19.6 106.8 -18.0Q107.9 -16.5 107.9 -14.4V0.0H102.2V-3.1H102.0Q101.4 -2.1 100.5 -1.3Q99.6 -0.5 98.4 -0.1Q97.2 0.3 95.9 0.3Z M113.5 0.0V-16.6H110.7V-20.9H113.5V-22.6Q113.5 -24.7 114.2 -26.0Q114.9 -27.3 116.5 -28.0Q118.0 -28.6 120.4 -28.6Q121.2 -28.6 122.0 -28.5Q122.8 -28.5 123.3 -28.4V-24.6Q123.0 -24.7 122.6 -24.7Q122.2 -24.7 121.9 -24.7Q120.4 -24.7 119.8 -24.1Q119.1 -23.5 119.1 -22.4V-20.9H123.3V-16.6H119.2V0.0Z M128.3 0.0V-16.6H125.4V-20.9H128.3V-22.6Q128.3 -24.7 129.0 -26.0Q129.7 -27.3 131.2 -28.0Q132.7 -28.6 135.2 -28.6Q136.0 -28.6 136.8 -28.5Q137.6 -28.5 138.1 -28.4V-24.6Q137.8 -24.7 137.4 -24.7Q137.0 -24.7 136.6 -24.7Q135.2 -24.7 134.5 -24.1Q133.8 -23.5 133.8 -22.4V-20.9H138.0V-16.6H134.0V0.0Z M151.0 0.4Q147.8 0.4 145.5 -0.9Q143.2 -2.2 142.0 -4.6Q140.7 -7.1 140.7 -10.4V-10.4Q140.7 -13.8 142.0 -16.2Q143.2 -18.7 145.5 -20.0Q147.7 -21.4 150.8 -21.4Q153.9 -21.4 156.1 -20.1Q158.3 -18.8 159.6 -16.4Q160.8 -14.0 160.8 -10.9V-9.1H143.5V-12.7H158.1L155.4 -9.3V-11.5Q155.4 -13.4 154.8 -14.6Q154.2 -15.9 153.2 -16.5Q152.2 -17.1 150.9 -17.1Q149.6 -17.1 148.5 -16.5Q147.5 -15.8 146.9 -14.6Q146.4 -13.3 146.4 -11.5V-9.3Q146.4 -7.6 146.9 -6.4Q147.5 -5.1 148.6 -4.5Q149.7 -3.8 151.2 -3.8Q152.3 -3.8 153.2 -4.2Q154.0 -4.6 154.6 -5.1Q155.1 -5.7 155.3 -6.3L155.4 -6.4H160.6L160.6 -6.2Q160.3 -5.0 159.6 -3.9Q158.9 -2.7 157.8 -1.7Q156.6 -0.7 155.0 -0.2Q153.3 0.4 151.0 0.4Z M173.8 0.4Q170.6 0.4 168.3 -0.9Q166.0 -2.2 164.7 -4.7Q163.4 -7.1 163.4 -10.5V-10.5Q163.4 -13.9 164.7 -16.3Q166.0 -18.7 168.3 -20.0Q170.6 -21.4 173.7 -21.4Q176.6 -21.4 178.7 -20.3Q180.8 -19.2 181.9 -17.4Q183.1 -15.6 183.2 -13.3L183.2 -13.2H177.9L177.9 -13.4Q177.7 -14.9 176.6 -15.9Q175.6 -16.9 173.8 -16.9Q172.4 -16.9 171.4 -16.1Q170.4 -15.4 169.8 -13.9Q169.2 -12.5 169.2 -10.5V-10.5Q169.2 -8.4 169.8 -7.0Q170.4 -5.5 171.4 -4.8Q172.4 -4.0 173.8 -4.0Q175.5 -4.0 176.6 -5.0Q177.6 -6.0 177.9 -7.6L177.9 -7.7H183.3L183.2 -7.6Q183.1 -5.3 181.9 -3.5Q180.7 -1.7 178.7 -0.6Q176.6 0.4 173.8 0.4Z M194.8 0.4Q191.3 0.4 189.7 -1.0Q188.0 -2.5 188.0 -5.8V-16.6H185.1V-20.9H188.0V-26.0H193.8V-20.9H197.6V-16.6H193.8V-6.5Q193.8 -5.0 194.4 -4.4Q195.1 -3.9 196.4 -3.9Q196.7 -3.9 197.0 -3.9Q197.3 -3.9 197.6 -4.0V0.2Q197.1 0.3 196.4 0.4Q195.7 0.4 194.8 0.4Z M201.9 -9.0V-13.9H214.5V-9.0Z M219.5 0.0V-28.2H225.2V-17.3H225.3Q226.1 -19.3 227.8 -20.3Q229.4 -21.4 231.8 -21.4Q234.0 -21.4 235.7 -20.4Q237.3 -19.4 238.2 -17.5Q239.1 -15.7 239.1 -13.1V0.0H233.4V-12.0Q233.4 -14.2 232.3 -15.4Q231.3 -16.6 229.3 -16.6Q228.1 -16.6 227.2 -16.0Q226.2 -15.4 225.7 -14.4Q225.2 -13.4 225.2 -12.0V0.0Z M252.8 0.4Q249.7 0.4 247.3 -0.9Q245.0 -2.2 243.7 -4.6Q242.5 -7.1 242.5 -10.5V-10.5Q242.5 -13.9 243.8 -16.3Q245.1 -18.8 247.4 -20.1Q249.7 -21.4 252.8 -21.4Q256.0 -21.4 258.3 -20.1Q260.6 -18.8 261.9 -16.3Q263.2 -13.9 263.2 -10.5V-10.5Q263.2 -7.0 261.9 -4.6Q260.7 -2.2 258.3 -0.9Q256.0 0.4 252.8 0.4ZM252.9 -4.0Q254.3 -4.0 255.3 -4.8Q256.3 -5.5 256.9 -7.0Q257.4 -8.4 257.4 -10.5V-10.5Q257.4 -12.5 256.8 -14.0Q256.3 -15.4 255.3 -16.1Q254.2 -16.9 252.8 -16.9Q251.5 -16.9 250.4 -16.1Q249.4 -15.4 248.8 -14.0Q248.3 -12.5 248.3 -10.5V-10.5Q248.3 -8.4 248.8 -7.0Q249.4 -5.5 250.4 -4.8Q251.5 -4.0 252.9 -4.0Z M266.7 0.0V-20.9H272.4V-17.5H272.5Q273.3 -19.3 274.9 -20.3Q276.5 -21.4 278.9 -21.4Q282.3 -21.4 284.2 -19.3Q286.1 -17.2 286.1 -13.5V0.0H280.4V-12.3Q280.4 -14.4 279.4 -15.5Q278.5 -16.6 276.5 -16.6Q275.3 -16.6 274.3 -16.1Q273.4 -15.5 272.9 -14.4Q272.4 -13.4 272.4 -12.0V0.0Z M299.7 0.4Q296.5 0.4 294.2 -0.9Q291.9 -2.2 290.7 -4.6Q289.4 -7.1 289.4 -10.4V-10.4Q289.4 -13.8 290.7 -16.2Q291.9 -18.7 294.2 -20.0Q296.4 -21.4 299.5 -21.4Q302.6 -21.4 304.8 -20.1Q307.0 -18.8 308.3 -16.4Q309.5 -14.0 309.5 -10.9V-9.1H292.2V-12.7H306.8L304.1 -9.3V-11.5Q304.1 -13.4 303.5 -14.6Q302.9 -15.9 301.9 -16.5Q300.9 -17.1 299.6 -17.1Q298.3 -17.1 297.2 -16.5Q296.2 -15.8 295.6 -14.6Q295.1 -13.3 295.1 -11.5V-9.3Q295.1 -7.6 295.6 -6.4Q296.2 -5.1 297.3 -4.5Q298.4 -3.8 299.9 -3.8Q301.0 -3.8 301.9 -4.2Q302.7 -4.6 303.3 -5.1Q303.8 -5.7 304.0 -6.3L304.1 -6.4H309.3L309.2 -6.2Q309.0 -5.0 308.3 -3.9Q307.6 -2.7 306.5 -1.7Q305.3 -0.7 303.6 -0.2Q302.0 0.4 299.7 0.4Z M321.5 0.4Q318.6 0.4 316.6 -0.4Q314.6 -1.2 313.4 -2.7Q312.3 -4.2 312.1 -6.2L312.0 -6.4H317.6L317.6 -6.2Q317.9 -5.0 318.9 -4.3Q319.8 -3.6 321.5 -3.6Q322.6 -3.6 323.4 -3.9Q324.1 -4.1 324.6 -4.6Q325.0 -5.1 325.0 -5.8V-5.8Q325.0 -6.7 324.4 -7.2Q323.8 -7.7 322.2 -8.0L318.7 -8.8Q316.6 -9.2 315.3 -10.0Q313.9 -10.8 313.2 -12.0Q312.5 -13.2 312.5 -14.8V-14.8Q312.5 -16.8 313.6 -18.3Q314.7 -19.7 316.7 -20.6Q318.7 -21.4 321.3 -21.4Q324.1 -21.4 326.0 -20.5Q328.0 -19.6 329.0 -18.1Q330.1 -16.6 330.1 -14.7L330.1 -14.6H324.9L324.9 -14.7Q324.7 -15.8 323.8 -16.6Q322.9 -17.3 321.3 -17.3Q320.3 -17.3 319.6 -17.1Q318.9 -16.8 318.5 -16.3Q318.1 -15.8 318.1 -15.1V-15.1Q318.1 -14.6 318.4 -14.1Q318.7 -13.7 319.3 -13.4Q319.9 -13.1 320.9 -12.9L324.5 -12.1Q326.7 -11.7 328.1 -10.9Q329.4 -10.1 330.0 -9.0Q330.7 -7.9 330.7 -6.4V-6.4Q330.7 -4.3 329.5 -2.8Q328.3 -1.3 326.3 -0.4Q324.2 0.4 321.5 0.4Z M342.3 0.4Q338.8 0.4 337.2 -1.0Q335.5 -2.5 335.5 -5.8V-16.6H332.6V-20.9H335.5V-26.0H341.2V-20.9H345.1V-16.6H341.2V-6.5Q341.2 -5.0 341.9 -4.4Q342.5 -3.9 343.8 -3.9Q344.2 -3.9 344.5 -3.9Q344.8 -3.9 345.1 -4.0V0.2Q344.6 0.3 343.9 0.4Q343.2 0.4 342.3 0.4Z M349.3 -9.0V-13.9H362.0V-9.0Z M366.9 0.0V-20.9H372.6V-17.5H372.7Q373.5 -19.3 375.1 -20.3Q376.7 -21.4 379.1 -21.4Q382.5 -21.4 384.4 -19.3Q386.3 -17.2 386.3 -13.5V0.0H380.6V-12.3Q380.6 -14.4 379.6 -15.5Q378.6 -16.6 376.7 -16.6Q375.5 -16.6 374.5 -16.1Q373.6 -15.5 373.1 -14.4Q372.6 -13.4 372.6 -12.0V0.0Z M399.9 0.4Q396.7 0.4 394.4 -0.9Q392.1 -2.2 390.9 -4.6Q389.6 -7.1 389.6 -10.4V-10.4Q389.6 -13.8 390.9 -16.2Q392.1 -18.7 394.4 -20.0Q396.6 -21.4 399.7 -21.4Q402.8 -21.4 405.0 -20.1Q407.2 -18.8 408.5 -16.4Q409.7 -14.0 409.7 -10.9V-9.1H392.4V-12.7H407.0L404.3 -9.3V-11.5Q404.3 -13.4 403.7 -14.6Q403.1 -15.9 402.1 -16.5Q401.1 -17.1 399.8 -17.1Q398.5 -17.1 397.4 -16.5Q396.4 -15.8 395.8 -14.6Q395.3 -13.3 395.3 -11.5V-9.3Q395.3 -7.6 395.8 -6.4Q396.4 -5.1 397.5 -4.5Q398.6 -3.8 400.0 -3.8Q401.2 -3.8 402.1 -4.2Q402.9 -4.6 403.5 -5.1Q404.0 -5.7 404.2 -6.3L404.3 -6.4H409.5L409.4 -6.2Q409.2 -5.0 408.5 -3.9Q407.8 -2.7 406.7 -1.7Q405.5 -0.7 403.8 -0.2Q402.2 0.4 399.9 0.4Z M422.9 7.3Q420.0 7.3 417.9 6.5Q415.7 5.7 414.5 4.3Q413.2 3.0 412.9 1.3L412.9 1.1H418.5L418.5 1.3Q418.9 2.0 420.0 2.6Q421.1 3.2 422.9 3.2Q425.1 3.2 426.2 2.1Q427.4 1.1 427.4 -0.7V-3.9H427.3Q426.7 -2.8 425.8 -2.0Q424.9 -1.2 423.6 -0.7Q422.3 -0.3 420.8 -0.3Q418.2 -0.3 416.3 -1.5Q414.4 -2.8 413.4 -5.1Q412.3 -7.5 412.3 -10.7V-10.7Q412.3 -14.1 413.4 -16.4Q414.4 -18.8 416.3 -20.1Q418.3 -21.4 420.9 -21.4Q422.4 -21.4 423.6 -20.9Q424.9 -20.4 425.8 -19.5Q426.7 -18.6 427.3 -17.4H427.4V-20.9H433.1V-0.6Q433.1 1.7 431.9 3.5Q430.6 5.3 428.3 6.3Q426.0 7.3 422.9 7.3ZM422.8 -4.5Q424.2 -4.5 425.2 -5.2Q426.3 -6.0 426.8 -7.3Q427.4 -8.7 427.4 -10.6V-10.6Q427.4 -12.5 426.8 -13.8Q426.3 -15.2 425.2 -15.9Q424.2 -16.6 422.8 -16.6Q421.4 -16.6 420.3 -15.9Q419.3 -15.2 418.7 -13.8Q418.1 -12.5 418.1 -10.6V-10.6Q418.1 -8.7 418.7 -7.3Q419.3 -5.9 420.3 -5.2Q421.4 -4.5 422.8 -4.5Z M443.6 0.3Q441.5 0.3 439.9 -0.5Q438.3 -1.3 437.4 -2.7Q436.5 -4.2 436.5 -6.0V-6.0Q436.5 -7.9 437.5 -9.3Q438.4 -10.7 440.3 -11.4Q442.1 -12.2 444.7 -12.4L452.8 -12.9V-9.4L445.5 -8.9Q443.9 -8.8 443.0 -8.1Q442.2 -7.4 442.2 -6.3V-6.3Q442.2 -5.1 443.1 -4.5Q443.9 -3.8 445.4 -3.8Q446.7 -3.8 447.7 -4.3Q448.7 -4.8 449.3 -5.7Q449.9 -6.6 449.9 -7.6V-14.0Q449.9 -15.4 449.0 -16.2Q448.1 -17.0 446.4 -17.0Q444.8 -17.0 443.9 -16.3Q442.9 -15.7 442.7 -14.7L442.7 -14.5H437.5L437.5 -14.7Q437.6 -16.7 438.8 -18.2Q439.9 -19.7 441.9 -20.5Q443.9 -21.4 446.7 -21.4Q449.4 -21.4 451.4 -20.5Q453.4 -19.6 454.5 -18.0Q455.6 -16.5 455.6 -14.4V0.0H449.9V-3.1H449.7Q449.1 -2.1 448.2 -1.3Q447.3 -0.5 446.1 -0.1Q444.9 0.3 443.6 0.3Z M468.1 0.4Q464.6 0.4 462.9 -1.0Q461.2 -2.5 461.2 -5.8V-16.6H458.3V-20.9H461.2V-26.0H467.0V-20.9H470.8V-16.6H467.0V-6.5Q467.0 -5.0 467.6 -4.4Q468.3 -3.9 469.6 -3.9Q470.0 -3.9 470.2 -3.9Q470.5 -3.9 470.8 -4.0V0.2Q470.3 0.3 469.6 0.4Q468.9 0.4 468.1 0.4Z M474.6 0.0V-20.9H480.3V0.0ZM477.4 -23.6Q476.1 -23.6 475.2 -24.5Q474.4 -25.4 474.4 -26.6Q474.4 -27.8 475.2 -28.7Q476.1 -29.6 477.4 -29.6Q478.7 -29.6 479.6 -28.7Q480.5 -27.8 480.5 -26.6Q480.5 -25.4 479.6 -24.5Q478.7 -23.6 477.4 -23.6Z M490.1 0.0 482.8 -20.9H489.0L493.3 -5.0H493.4L497.8 -20.9H503.7L496.5 0.0Z M515.7 0.4Q512.5 0.4 510.2 -0.9Q507.9 -2.2 506.7 -4.6Q505.4 -7.1 505.4 -10.4V-10.4Q505.4 -13.8 506.7 -16.2Q507.9 -18.7 510.2 -20.0Q512.4 -21.4 515.5 -21.4Q518.6 -21.4 520.8 -20.1Q523.0 -18.8 524.3 -16.4Q525.5 -14.0 525.5 -10.9V-9.1H508.2V-12.7H522.8L520.1 -9.3V-11.5Q520.1 -13.4 519.5 -14.6Q518.9 -15.9 517.9 -16.5Q516.9 -17.1 515.6 -17.1Q514.3 -17.1 513.3 -16.5Q512.2 -15.8 511.6 -14.6Q511.1 -13.3 511.1 -11.5V-9.3Q511.1 -7.6 511.6 -6.4Q512.2 -5.1 513.3 -4.5Q514.4 -3.8 515.9 -3.8Q517.0 -3.8 517.9 -4.2Q518.8 -4.6 519.3 -5.1Q519.8 -5.7 520.0 -6.3L520.1 -6.4H525.3L525.3 -6.2Q525.0 -5.0 524.3 -3.9Q523.7 -2.7 522.5 -1.7Q521.3 -0.7 519.7 -0.2Q518.0 0.4 515.7 0.4Z M537.5 0.4Q534.6 0.4 532.6 -0.4Q530.6 -1.2 529.4 -2.7Q528.3 -4.2 528.1 -6.2L528.0 -6.4H533.6L533.6 -6.2Q533.9 -5.0 534.9 -4.3Q535.8 -3.6 537.5 -3.6Q538.6 -3.6 539.4 -3.9Q540.1 -4.1 540.6 -4.6Q541.0 -5.1 541.0 -5.8V-5.8Q541.0 -6.7 540.4 -7.2Q539.8 -7.7 538.2 -8.0L534.7 -8.8Q532.6 -9.2 531.3 -10.0Q529.9 -10.8 529.2 -12.0Q528.6 -13.2 528.6 -14.8V-14.8Q528.6 -16.8 529.6 -18.3Q530.7 -19.7 532.7 -20.6Q534.7 -21.4 537.3 -21.4Q540.1 -21.4 542.1 -20.5Q544.0 -19.6 545.0 -18.1Q546.1 -16.6 546.1 -14.7L546.1 -14.6H540.9L540.9 -14.7Q540.7 -15.8 539.8 -16.6Q538.9 -17.3 537.3 -17.3Q536.3 -17.3 535.6 -17.1Q534.9 -16.8 534.5 -16.3Q534.1 -15.8 534.1 -15.1V-15.1Q534.1 -14.6 534.4 -14.1Q534.7 -13.7 535.3 -13.4Q535.9 -13.1 537.0 -12.9L540.5 -12.1Q542.7 -11.7 544.1 -10.9Q545.4 -10.1 546.1 -9.0Q546.7 -7.9 546.7 -6.4V-6.4Q546.7 -4.3 545.5 -2.8Q544.3 -1.3 542.3 -0.4Q540.2 0.4 537.5 0.4Z"/></g>
    <g transform="translate(247.4,100)" fill="#9CA3AF"><path d="M4.4 0.2Q3.3 0.2 2.5 -0.1Q1.7 -0.5 1.3 -1.1Q0.8 -1.7 0.7 -2.5L0.7 -2.6H2.2L2.2 -2.5Q2.3 -2.1 2.6 -1.7Q2.8 -1.4 3.3 -1.3Q3.8 -1.1 4.5 -1.1Q5.1 -1.1 5.5 -1.3Q6.0 -1.4 6.3 -1.8Q6.5 -2.1 6.5 -2.6V-2.6Q6.5 -3.1 6.1 -3.5Q5.7 -3.8 4.8 -4.0L3.7 -4.2Q2.8 -4.4 2.1 -4.8Q1.5 -5.2 1.2 -5.7Q1.0 -6.2 1.0 -6.9V-7.0Q1.0 -7.8 1.4 -8.4Q1.8 -9.0 2.6 -9.4Q3.4 -9.7 4.4 -9.7Q5.4 -9.7 6.2 -9.4Q6.9 -9.0 7.4 -8.5Q7.8 -7.9 7.9 -7.1L7.9 -7.0H6.4L6.4 -7.1Q6.3 -7.5 6.1 -7.8Q5.8 -8.1 5.4 -8.3Q5.0 -8.4 4.4 -8.4Q3.8 -8.4 3.4 -8.3Q3.0 -8.1 2.7 -7.8Q2.5 -7.5 2.5 -7.0V-7.0Q2.5 -6.7 2.7 -6.4Q2.8 -6.1 3.2 -5.9Q3.6 -5.7 4.2 -5.6L5.2 -5.4Q6.2 -5.2 6.9 -4.8Q7.5 -4.5 7.8 -4.0Q8.0 -3.4 8.0 -2.7V-2.7Q8.0 -1.8 7.6 -1.2Q7.2 -0.5 6.3 -0.1Q5.5 0.2 4.4 0.2Z M12.0 0.0V-9.5H13.5V0.0Z M17.2 0.0 20.7 -5.3 20.4 -4.1V-4.8L17.2 -9.5H19.0L21.4 -5.8H22.1L21.1 -5.3L23.8 -9.5H25.5L22.2 -4.8V-4.1L21.9 -5.3L25.4 0.0H23.6L21.3 -3.6H20.6L21.6 -4.2L18.9 0.0Z M35.6 -3.2V-4.5H38.2Q39.1 -4.5 39.7 -5.0Q40.2 -5.5 40.2 -6.4V-6.4Q40.2 -7.3 39.7 -7.8Q39.1 -8.2 38.2 -8.2H35.6V-9.5H38.6Q39.5 -9.5 40.2 -9.1Q40.9 -8.7 41.3 -8.0Q41.7 -7.3 41.7 -6.4V-6.4Q41.7 -5.4 41.3 -4.7Q40.9 -4.0 40.2 -3.6Q39.5 -3.2 38.6 -3.2ZM34.8 0.0V-9.5H36.4V0.0Z M45.6 0.0V-9.5H49.4Q50.3 -9.5 51.1 -9.2Q51.8 -8.8 52.2 -8.1Q52.5 -7.5 52.5 -6.6V-6.6Q52.5 -5.6 52.1 -4.9Q51.6 -4.2 50.7 -3.9L52.8 0.0H51.1L49.2 -3.6Q49.1 -3.6 49.1 -3.6Q49.1 -3.6 49.1 -3.6H47.1V0.0ZM47.1 -4.9H49.2Q50.1 -4.9 50.5 -5.3Q51.0 -5.7 51.0 -6.6V-6.6Q51.0 -7.4 50.5 -7.8Q50.0 -8.3 49.2 -8.3H47.1Z M56.6 0.0V-9.5H62.7V-8.2H58.1V-5.5H62.4V-4.2H58.1V-1.3H62.7V0.0Z M66.6 -3.2V-4.5H71.0V-3.2Z M75.2 0.0V-9.5H78.9Q79.9 -9.5 80.6 -9.2Q81.3 -8.8 81.7 -8.1Q82.1 -7.5 82.1 -6.6V-6.6Q82.1 -5.6 81.6 -4.9Q81.1 -4.2 80.3 -3.9L82.4 0.0H80.7L78.7 -3.6Q78.7 -3.6 78.7 -3.6Q78.7 -3.6 78.7 -3.6H76.7V0.0ZM76.7 -4.9H78.8Q79.6 -4.9 80.1 -5.3Q80.6 -5.7 80.6 -6.6V-6.6Q80.6 -7.4 80.1 -7.8Q79.6 -8.3 78.7 -8.3H76.7Z M86.2 0.0V-9.5H92.2V-8.2H87.7V-5.5H92.0V-4.2H87.7V-1.3H92.2V0.0Z M100.4 0.2Q99.3 0.2 98.5 -0.1Q97.7 -0.5 97.1 -1.1Q96.6 -1.8 96.3 -2.7Q95.9 -3.6 95.9 -4.8V-4.8Q95.9 -6.3 96.5 -7.4Q97.0 -8.5 98.0 -9.1Q99.0 -9.7 100.3 -9.7Q101.4 -9.7 102.3 -9.4Q103.1 -9.0 103.7 -8.3Q104.2 -7.6 104.4 -6.7L104.4 -6.6H102.9L102.9 -6.7Q102.6 -7.5 102.0 -8.0Q101.3 -8.4 100.3 -8.4Q99.5 -8.4 98.8 -8.0Q98.2 -7.5 97.8 -6.7Q97.5 -5.9 97.5 -4.8V-4.8Q97.5 -3.9 97.7 -3.2Q97.9 -2.6 98.3 -2.1Q98.6 -1.6 99.2 -1.4Q99.7 -1.1 100.4 -1.1Q101.1 -1.1 101.7 -1.4Q102.3 -1.7 102.6 -2.3Q103.0 -2.8 103.0 -3.5L103.0 -3.7H100.6V-4.9H104.5V-3.8Q104.5 -2.9 104.2 -2.1Q103.9 -1.4 103.4 -0.9Q102.8 -0.3 102.1 -0.1Q101.3 0.2 100.4 0.2Z M108.5 0.0V-9.5H110.0V0.0Z M117.6 0.2Q116.5 0.2 115.7 -0.1Q114.9 -0.5 114.4 -1.1Q114.0 -1.7 113.9 -2.5L113.9 -2.6H115.4L115.4 -2.5Q115.4 -2.1 115.7 -1.7Q116.0 -1.4 116.5 -1.3Q117.0 -1.1 117.6 -1.1Q118.2 -1.1 118.7 -1.3Q119.1 -1.4 119.4 -1.8Q119.7 -2.1 119.7 -2.6V-2.6Q119.7 -3.1 119.3 -3.5Q118.8 -3.8 117.9 -4.0L116.9 -4.2Q115.9 -4.4 115.3 -4.8Q114.7 -5.2 114.4 -5.7Q114.1 -6.2 114.1 -6.9V-7.0Q114.1 -7.8 114.5 -8.4Q115.0 -9.0 115.8 -9.4Q116.5 -9.7 117.6 -9.7Q118.6 -9.7 119.3 -9.4Q120.1 -9.0 120.5 -8.5Q121.0 -7.9 121.0 -7.1L121.0 -7.0H119.6L119.5 -7.1Q119.5 -7.5 119.2 -7.8Q119.0 -8.1 118.5 -8.3Q118.1 -8.4 117.5 -8.4Q117.0 -8.4 116.6 -8.3Q116.1 -8.1 115.9 -7.8Q115.6 -7.5 115.6 -7.0V-7.0Q115.6 -6.7 115.8 -6.4Q116.0 -6.1 116.4 -5.9Q116.7 -5.7 117.3 -5.6L118.4 -5.4Q119.4 -5.2 120.0 -4.8Q120.6 -4.5 120.9 -4.0Q121.2 -3.4 121.2 -2.7V-2.7Q121.2 -1.8 120.7 -1.2Q120.3 -0.5 119.5 -0.1Q118.7 0.2 117.6 0.2Z M127.5 0.0V-8.2H124.5V-9.5H132.0V-8.2H129.0V0.0Z M135.8 0.0V-9.5H141.8V-8.2H137.3V-5.5H141.6V-4.2H137.3V-1.3H141.8V0.0Z M145.9 0.0V-9.5H149.7Q150.7 -9.5 151.4 -9.2Q152.1 -8.8 152.5 -8.1Q152.9 -7.5 152.9 -6.6V-6.6Q152.9 -5.6 152.4 -4.9Q151.9 -4.2 151.0 -3.9L153.1 0.0H151.4L149.5 -3.6Q149.5 -3.6 149.4 -3.6Q149.4 -3.6 149.4 -3.6H147.4V0.0ZM147.4 -4.9H149.5Q150.4 -4.9 150.8 -5.3Q151.3 -5.7 151.3 -6.6V-6.6Q151.3 -7.4 150.8 -7.8Q150.3 -8.3 149.5 -8.3H147.4Z M156.9 0.0V-9.5H163.0V-8.2H158.4V-5.5H162.7V-4.2H158.4V-1.3H163.0V0.0Z M167.1 0.0V-9.5H170.5Q171.9 -9.5 172.9 -9.0Q174.0 -8.4 174.5 -7.3Q175.0 -6.3 175.0 -4.8V-4.8Q175.0 -3.3 174.5 -2.2Q174.0 -1.1 173.0 -0.6Q172.0 0.0 170.5 0.0ZM168.6 -1.3H170.4Q171.4 -1.3 172.0 -1.7Q172.7 -2.1 173.1 -2.9Q173.5 -3.7 173.5 -4.8V-4.8Q173.5 -5.9 173.1 -6.6Q172.7 -7.4 172.0 -7.8Q171.3 -8.2 170.4 -8.2H168.6Z M187.8 0.2Q186.8 0.2 186.0 -0.1Q185.2 -0.5 184.7 -1.1Q184.2 -1.7 184.2 -2.5L184.2 -2.6H185.6L185.6 -2.5Q185.7 -2.1 186.0 -1.7Q186.3 -1.4 186.8 -1.3Q187.3 -1.1 187.9 -1.1Q188.5 -1.1 189.0 -1.3Q189.4 -1.4 189.7 -1.8Q190.0 -2.1 190.0 -2.6V-2.6Q190.0 -3.1 189.5 -3.5Q189.1 -3.8 188.2 -4.0L187.1 -4.2Q186.2 -4.4 185.6 -4.8Q185.0 -5.2 184.7 -5.7Q184.4 -6.2 184.4 -6.9V-7.0Q184.4 -7.8 184.8 -8.4Q185.3 -9.0 186.0 -9.4Q186.8 -9.7 187.8 -9.7Q188.9 -9.7 189.6 -9.4Q190.4 -9.0 190.8 -8.5Q191.2 -7.9 191.3 -7.1L191.3 -7.0H189.8L189.8 -7.1Q189.8 -7.5 189.5 -7.8Q189.2 -8.1 188.8 -8.3Q188.4 -8.4 187.8 -8.4Q187.3 -8.4 186.8 -8.3Q186.4 -8.1 186.2 -7.8Q185.9 -7.5 185.9 -7.0V-7.0Q185.9 -6.7 186.1 -6.4Q186.3 -6.1 186.6 -5.9Q187.0 -5.7 187.6 -5.6L188.7 -5.4Q189.7 -5.2 190.3 -4.8Q190.9 -4.5 191.2 -4.0Q191.5 -3.4 191.5 -2.7V-2.7Q191.5 -1.8 191.0 -1.2Q190.6 -0.5 189.8 -0.1Q188.9 0.2 187.8 0.2Z M196.1 -3.2V-4.5H198.7Q199.7 -4.5 200.2 -5.0Q200.7 -5.5 200.7 -6.4V-6.4Q200.7 -7.3 200.2 -7.8Q199.7 -8.2 198.7 -8.2H196.1V-9.5H199.1Q200.0 -9.5 200.7 -9.1Q201.5 -8.7 201.9 -8.0Q202.3 -7.3 202.3 -6.4V-6.4Q202.3 -5.4 201.9 -4.7Q201.5 -4.0 200.7 -3.6Q200.0 -3.2 199.1 -3.2ZM195.4 0.0V-9.5H196.9V0.0Z M206.1 0.0V-9.5H207.6V0.0Z M213.4 -3.0 213.3 -5.0H213.6L217.5 -9.5H219.3L215.5 -5.2L214.7 -4.5ZM212.0 0.0V-9.5H213.5V0.0ZM217.7 0.0 214.4 -4.5 215.5 -5.5 219.6 0.0Z M223.1 0.0V-9.5H229.2V-8.2H224.6V-5.5H228.9V-4.2H224.6V-1.3H229.2V0.0Z M236.5 0.2Q235.4 0.2 234.6 -0.1Q233.8 -0.5 233.4 -1.1Q232.9 -1.7 232.8 -2.5L232.8 -2.6H234.3L234.3 -2.5Q234.4 -2.1 234.7 -1.7Q234.9 -1.4 235.4 -1.3Q235.9 -1.1 236.6 -1.1Q237.2 -1.1 237.6 -1.3Q238.1 -1.4 238.4 -1.8Q238.6 -2.1 238.6 -2.6V-2.6Q238.6 -3.1 238.2 -3.5Q237.8 -3.8 236.9 -4.0L235.8 -4.2Q234.9 -4.4 234.2 -4.8Q233.6 -5.2 233.3 -5.7Q233.0 -6.2 233.0 -6.9V-7.0Q233.1 -7.8 233.5 -8.4Q233.9 -9.0 234.7 -9.4Q235.5 -9.7 236.5 -9.7Q237.5 -9.7 238.3 -9.4Q239.0 -9.0 239.5 -8.5Q239.9 -7.9 240.0 -7.1L240.0 -7.0H238.5L238.5 -7.1Q238.4 -7.5 238.2 -7.8Q237.9 -8.1 237.5 -8.3Q237.1 -8.4 236.5 -8.4Q235.9 -8.4 235.5 -8.3Q235.1 -8.1 234.8 -7.8Q234.6 -7.5 234.6 -7.0V-7.0Q234.6 -6.7 234.7 -6.4Q234.9 -6.1 235.3 -5.9Q235.7 -5.7 236.3 -5.6L237.3 -5.4Q238.3 -5.2 238.9 -4.8Q239.6 -4.5 239.9 -4.0Q240.1 -3.4 240.1 -2.7V-2.7Q240.1 -1.8 239.7 -1.2Q239.3 -0.5 238.4 -0.1Q237.6 0.2 236.5 0.2Z M250.6 -2.9Q250.2 -2.9 249.9 -3.2Q249.6 -3.4 249.6 -3.8Q249.6 -4.2 249.9 -4.5Q250.2 -4.8 250.6 -4.8Q251.0 -4.8 251.3 -4.5Q251.6 -4.2 251.6 -3.8Q251.6 -3.4 251.3 -3.2Q251.0 -2.9 250.6 -2.9Z M261.5 0.0V-9.5H262.9L268.1 -2.1L267.1 -2.6H267.8V-9.5H269.3V0.0H268.0L262.7 -7.4L263.8 -6.9H263.0V0.0Z M273.7 0.0V-9.5H279.7V-8.2H275.2V-5.5H279.5V-4.2H275.2V-1.3H279.7V0.0Z M287.8 0.2Q286.8 0.2 286.0 -0.1Q285.2 -0.5 284.6 -1.1Q284.0 -1.8 283.7 -2.7Q283.4 -3.6 283.4 -4.8V-4.8Q283.4 -6.3 284.0 -7.4Q284.5 -8.5 285.5 -9.1Q286.5 -9.7 287.8 -9.7Q288.9 -9.7 289.8 -9.4Q290.6 -9.0 291.2 -8.3Q291.7 -7.6 291.9 -6.7L291.9 -6.6H290.4L290.4 -6.7Q290.1 -7.5 289.4 -8.0Q288.8 -8.4 287.8 -8.4Q286.9 -8.4 286.3 -8.0Q285.7 -7.5 285.3 -6.7Q285.0 -5.9 285.0 -4.8V-4.8Q285.0 -3.9 285.2 -3.2Q285.4 -2.6 285.7 -2.1Q286.1 -1.6 286.7 -1.4Q287.2 -1.1 287.9 -1.1Q288.6 -1.1 289.2 -1.4Q289.8 -1.7 290.1 -2.3Q290.5 -2.8 290.5 -3.5L290.5 -3.7H288.0V-4.9H291.9V-3.8Q291.9 -2.9 291.7 -2.1Q291.4 -1.4 290.8 -0.9Q290.3 -0.3 289.5 -0.1Q288.8 0.2 287.8 0.2Z M295.2 0.0 298.6 -9.5H299.9V-7.8H299.4L296.8 0.0ZM296.9 -2.6 297.3 -3.8H301.6L302.1 -2.6ZM302.1 0.0 299.5 -7.8V-9.5H300.3L303.7 0.0Z M309.7 0.0V-8.2H306.8V-9.5H314.2V-8.2H311.2V0.0Z M318.0 0.0V-9.5H319.5V0.0Z M326.5 0.0 323.1 -9.5H324.8L327.3 -1.8H327.4L329.9 -9.5H331.6L328.2 0.0Z M335.2 0.0V-9.5H341.2V-8.2H336.7V-5.5H341.0V-4.2H336.7V-1.3H341.2V0.0Z M351.0 0.0V-9.5H354.7Q355.7 -9.5 356.4 -9.2Q357.1 -8.8 357.5 -8.1Q357.9 -7.5 357.9 -6.6V-6.6Q357.9 -5.6 357.4 -4.9Q356.9 -4.2 356.1 -3.9L358.2 0.0H356.4L354.5 -3.6Q354.5 -3.6 354.5 -3.6Q354.5 -3.6 354.4 -3.6H352.5V0.0ZM352.5 -4.9H354.6Q355.4 -4.9 355.9 -5.3Q356.3 -5.7 356.3 -6.6V-6.6Q356.3 -7.4 355.9 -7.8Q355.4 -8.3 354.5 -8.3H352.5Z M362.0 0.0V-9.5H368.0V-8.2H363.5V-5.5H367.8V-4.2H363.5V-1.3H368.0V0.0Z M375.4 0.2Q374.3 0.2 373.5 -0.1Q372.7 -0.5 372.2 -1.1Q371.7 -1.7 371.7 -2.5L371.7 -2.6H373.2L373.2 -2.5Q373.2 -2.1 373.5 -1.7Q373.8 -1.4 374.3 -1.3Q374.8 -1.1 375.4 -1.1Q376.0 -1.1 376.5 -1.3Q376.9 -1.4 377.2 -1.8Q377.5 -2.1 377.5 -2.6V-2.6Q377.5 -3.1 377.1 -3.5Q376.6 -3.8 375.7 -4.0L374.7 -4.2Q373.7 -4.4 373.1 -4.8Q372.5 -5.2 372.2 -5.7Q371.9 -6.2 371.9 -6.9V-7.0Q371.9 -7.8 372.3 -8.4Q372.8 -9.0 373.6 -9.4Q374.3 -9.7 375.4 -9.7Q376.4 -9.7 377.1 -9.4Q377.9 -9.0 378.3 -8.5Q378.8 -7.9 378.8 -7.1L378.8 -7.0H377.4L377.3 -7.1Q377.3 -7.5 377.0 -7.8Q376.8 -8.1 376.3 -8.3Q375.9 -8.4 375.3 -8.4Q374.8 -8.4 374.4 -8.3Q373.9 -8.1 373.7 -7.8Q373.4 -7.5 373.4 -7.0V-7.0Q373.4 -6.7 373.6 -6.4Q373.8 -6.1 374.2 -5.9Q374.5 -5.7 375.1 -5.6L376.2 -5.4Q377.2 -5.2 377.8 -4.8Q378.4 -4.5 378.7 -4.0Q379.0 -3.4 379.0 -2.7V-2.7Q379.0 -1.8 378.5 -1.2Q378.1 -0.5 377.3 -0.1Q376.5 0.2 375.4 0.2Z M386.8 0.2Q385.6 0.2 384.7 -0.2Q383.8 -0.7 383.4 -1.4Q382.9 -2.2 382.9 -3.3V-9.5H384.4V-3.4Q384.4 -2.7 384.7 -2.2Q385.0 -1.7 385.5 -1.4Q386.0 -1.1 386.8 -1.1Q387.5 -1.1 388.0 -1.4Q388.6 -1.7 388.8 -2.2Q389.1 -2.7 389.1 -3.4V-9.5H390.6V-3.3Q390.6 -2.2 390.1 -1.4Q389.7 -0.7 388.8 -0.2Q388.0 0.2 386.8 0.2Z M395.0 0.0V-9.5H396.5V-1.3H400.9V0.0Z M407.1 0.0V-8.2H404.2V-9.5H411.6V-8.2H408.7V0.0Z M418.6 0.2Q417.6 0.2 416.8 -0.1Q416.0 -0.5 415.5 -1.1Q415.0 -1.7 415.0 -2.5L415.0 -2.6H416.4L416.4 -2.5Q416.5 -2.1 416.8 -1.7Q417.1 -1.4 417.6 -1.3Q418.1 -1.1 418.7 -1.1Q419.3 -1.1 419.8 -1.3Q420.2 -1.4 420.5 -1.8Q420.7 -2.1 420.7 -2.6V-2.6Q420.7 -3.1 420.3 -3.5Q419.9 -3.8 419.0 -4.0L417.9 -4.2Q417.0 -4.4 416.4 -4.8Q415.8 -5.2 415.5 -5.7Q415.2 -6.2 415.2 -6.9V-7.0Q415.2 -7.8 415.6 -8.4Q416.1 -9.0 416.8 -9.4Q417.6 -9.7 418.6 -9.7Q419.6 -9.7 420.4 -9.4Q421.2 -9.0 421.6 -8.5Q422.0 -7.9 422.1 -7.1L422.1 -7.0H420.6L420.6 -7.1Q420.6 -7.5 420.3 -7.8Q420.0 -8.1 419.6 -8.3Q419.2 -8.4 418.6 -8.4Q418.1 -8.4 417.6 -8.3Q417.2 -8.1 417.0 -7.8Q416.7 -7.5 416.7 -7.0V-7.0Q416.7 -6.7 416.9 -6.4Q417.1 -6.1 417.4 -5.9Q417.8 -5.7 418.4 -5.6L419.5 -5.4Q420.5 -5.2 421.1 -4.8Q421.7 -4.5 422.0 -4.0Q422.3 -3.4 422.3 -2.7V-2.7Q422.3 -1.8 421.8 -1.2Q421.4 -0.5 420.6 -0.1Q419.7 0.2 418.6 0.2Z M425.8 2.5 426.3 -1.4H427.9L426.8 2.5Z M438.0 0.0V-9.5H441.8Q442.8 -9.5 443.5 -9.2Q444.2 -8.8 444.6 -8.1Q445.0 -7.5 445.0 -6.6V-6.6Q445.0 -5.6 444.5 -4.9Q444.0 -4.2 443.1 -3.9L445.3 0.0H443.5L441.6 -3.6Q441.6 -3.6 441.6 -3.6Q441.5 -3.6 441.5 -3.6H439.5V0.0ZM439.5 -4.9H441.6Q442.5 -4.9 443.0 -5.3Q443.4 -5.7 443.4 -6.6V-6.6Q443.4 -7.4 442.9 -7.8Q442.5 -8.3 441.6 -8.3H439.5Z M449.0 0.0V-9.5H455.1V-8.2H450.6V-5.5H454.9V-4.2H450.6V-1.3H455.1V0.0Z M460.0 -3.2V-4.5H462.5Q463.5 -4.5 464.0 -5.0Q464.5 -5.5 464.5 -6.4V-6.4Q464.5 -7.3 464.0 -7.8Q463.5 -8.2 462.5 -8.2H460.0V-9.5H462.9Q463.8 -9.5 464.6 -9.1Q465.3 -8.7 465.7 -8.0Q466.1 -7.3 466.1 -6.4V-6.4Q466.1 -5.4 465.7 -4.7Q465.3 -4.0 464.6 -3.6Q463.8 -3.2 462.9 -3.2ZM459.2 0.0V-9.5H460.7V0.0Z M474.0 0.2Q472.6 0.2 471.6 -0.4Q470.6 -1.0 470.1 -2.1Q469.6 -3.2 469.6 -4.8V-4.8Q469.6 -6.3 470.1 -7.4Q470.6 -8.5 471.6 -9.1Q472.6 -9.7 474.0 -9.7Q475.4 -9.7 476.4 -9.1Q477.4 -8.5 477.9 -7.4Q478.5 -6.3 478.5 -4.8V-4.8Q478.5 -3.2 477.9 -2.1Q477.4 -1.0 476.4 -0.4Q475.4 0.2 474.0 0.2ZM474.0 -1.1Q474.9 -1.1 475.6 -1.6Q476.2 -2.0 476.6 -2.8Q476.9 -3.6 476.9 -4.8V-4.8Q476.9 -5.9 476.6 -6.7Q476.2 -7.5 475.6 -8.0Q474.9 -8.4 474.0 -8.4Q473.1 -8.4 472.5 -8.0Q471.8 -7.5 471.5 -6.7Q471.1 -5.9 471.1 -4.8V-4.8Q471.1 -3.6 471.4 -2.8Q471.8 -2.0 472.4 -1.6Q473.1 -1.1 474.0 -1.1Z M482.4 0.0V-9.5H486.2Q487.2 -9.5 487.9 -9.2Q488.6 -8.8 489.0 -8.1Q489.4 -7.5 489.4 -6.6V-6.6Q489.4 -5.6 488.9 -4.9Q488.4 -4.2 487.5 -3.9L489.6 0.0H487.9L486.0 -3.6Q486.0 -3.6 485.9 -3.6Q485.9 -3.6 485.9 -3.6H483.9V0.0ZM483.9 -4.9H486.0Q486.9 -4.9 487.3 -5.3Q487.8 -5.7 487.8 -6.6V-6.6Q487.8 -7.4 487.3 -7.8Q486.8 -8.3 486.0 -8.3H483.9Z M495.8 0.0V-8.2H492.9V-9.5H500.3V-8.2H497.3V0.0Z M504.1 0.0V-9.5H510.1V-8.2H505.6V-5.5H509.9V-4.2H505.6V-1.3H510.1V0.0Z M514.2 0.0V-9.5H517.7Q519.1 -9.5 520.1 -9.0Q521.1 -8.4 521.6 -7.3Q522.2 -6.3 522.2 -4.8V-4.8Q522.2 -3.3 521.6 -2.2Q521.1 -1.1 520.1 -0.6Q519.1 0.0 517.7 0.0ZM515.8 -1.3H517.5Q518.5 -1.3 519.2 -1.7Q519.9 -2.1 520.3 -2.9Q520.6 -3.7 520.6 -4.8V-4.8Q520.6 -5.9 520.3 -6.6Q519.9 -7.4 519.2 -7.8Q518.5 -8.2 517.5 -8.2H515.8Z M531.0 0.0 534.5 -9.5H535.7V-7.8H535.2L532.6 0.0ZM532.7 -2.6 533.1 -3.8H537.5L537.9 -2.6ZM537.9 0.0 535.3 -7.8V-9.5H536.1L539.5 0.0Z M546.4 0.2Q545.3 0.2 544.5 -0.1Q543.7 -0.5 543.2 -1.1Q542.8 -1.7 542.7 -2.5L542.7 -2.6H544.2L544.2 -2.5Q544.2 -2.1 544.5 -1.7Q544.8 -1.4 545.3 -1.3Q545.8 -1.1 546.4 -1.1Q547.0 -1.1 547.5 -1.3Q548.0 -1.4 548.2 -1.8Q548.5 -2.1 548.5 -2.6V-2.6Q548.5 -3.1 548.1 -3.5Q547.7 -3.8 546.7 -4.0L545.7 -4.2Q544.7 -4.4 544.1 -4.8Q543.5 -5.2 543.2 -5.7Q542.9 -6.2 542.9 -6.9V-7.0Q542.9 -7.8 543.4 -8.4Q543.8 -9.0 544.6 -9.4Q545.4 -9.7 546.4 -9.7Q547.4 -9.7 548.2 -9.4Q548.9 -9.0 549.4 -8.5Q549.8 -7.9 549.8 -7.1L549.8 -7.0H548.4L548.4 -7.1Q548.3 -7.5 548.1 -7.8Q547.8 -8.1 547.4 -8.3Q546.9 -8.4 546.4 -8.4Q545.8 -8.4 545.4 -8.3Q545.0 -8.1 544.7 -7.8Q544.5 -7.5 544.5 -7.0V-7.0Q544.5 -6.7 544.6 -6.4Q544.8 -6.1 545.2 -5.9Q545.6 -5.7 546.2 -5.6L547.2 -5.4Q548.2 -5.2 548.8 -4.8Q549.4 -4.5 549.7 -4.0Q550.0 -3.4 550.0 -2.7V-2.7Q550.0 -1.8 549.6 -1.2Q549.1 -0.5 548.3 -0.1Q547.5 0.2 546.4 0.2Z M562.8 0.2Q561.7 0.2 560.9 -0.1Q560.1 -0.5 559.6 -1.1Q559.2 -1.7 559.1 -2.5L559.1 -2.6H560.6L560.6 -2.5Q560.6 -2.1 560.9 -1.7Q561.2 -1.4 561.7 -1.3Q562.2 -1.1 562.8 -1.1Q563.5 -1.1 563.9 -1.3Q564.4 -1.4 564.6 -1.8Q564.9 -2.1 564.9 -2.6V-2.6Q564.9 -3.1 564.5 -3.5Q564.1 -3.8 563.1 -4.0L562.1 -4.2Q561.1 -4.4 560.5 -4.8Q559.9 -5.2 559.6 -5.7Q559.3 -6.2 559.3 -6.9V-7.0Q559.3 -7.8 559.8 -8.4Q560.2 -9.0 561.0 -9.4Q561.8 -9.7 562.8 -9.7Q563.8 -9.7 564.6 -9.4Q565.3 -9.0 565.8 -8.5Q566.2 -7.9 566.2 -7.1L566.3 -7.0H564.8L564.8 -7.1Q564.7 -7.5 564.5 -7.8Q564.2 -8.1 563.8 -8.3Q563.3 -8.4 562.8 -8.4Q562.2 -8.4 561.8 -8.3Q561.4 -8.1 561.1 -7.8Q560.9 -7.5 560.9 -7.0V-7.0Q560.9 -6.7 561.0 -6.4Q561.2 -6.1 561.6 -5.9Q562.0 -5.7 562.6 -5.6L563.6 -5.4Q564.6 -5.2 565.2 -4.8Q565.9 -4.5 566.1 -4.0Q566.4 -3.4 566.4 -2.7V-2.7Q566.4 -1.8 566.0 -1.2Q565.5 -0.5 564.7 -0.1Q563.9 0.2 562.8 0.2Z M574.2 0.2Q573.0 0.2 572.1 -0.2Q571.3 -0.7 570.8 -1.4Q570.3 -2.2 570.3 -3.3V-9.5H571.8V-3.4Q571.8 -2.7 572.1 -2.2Q572.4 -1.7 572.9 -1.4Q573.4 -1.1 574.2 -1.1Q574.9 -1.1 575.5 -1.4Q576.0 -1.7 576.3 -2.2Q576.5 -2.7 576.5 -3.4V-9.5H578.0V-3.3Q578.0 -2.2 577.6 -1.4Q577.1 -0.7 576.3 -0.2Q575.4 0.2 574.2 0.2Z M586.3 0.2Q585.0 0.2 584.0 -0.4Q583.0 -1.0 582.5 -2.1Q582.0 -3.2 582.0 -4.7V-4.8Q582.0 -6.3 582.5 -7.4Q583.0 -8.5 584.0 -9.1Q585.0 -9.7 586.3 -9.7Q587.4 -9.7 588.2 -9.3Q589.1 -8.9 589.6 -8.2Q590.1 -7.5 590.3 -6.5L590.3 -6.5H588.8L588.8 -6.5Q588.6 -7.1 588.3 -7.5Q587.9 -7.9 587.4 -8.2Q586.9 -8.4 586.3 -8.4Q585.5 -8.4 584.8 -8.0Q584.2 -7.5 583.9 -6.7Q583.5 -5.9 583.5 -4.8V-4.7Q583.5 -3.6 583.9 -2.8Q584.2 -2.0 584.8 -1.5Q585.5 -1.1 586.3 -1.1Q586.9 -1.1 587.4 -1.3Q588.0 -1.5 588.3 -1.9Q588.6 -2.3 588.8 -2.8L588.8 -2.9H590.3L590.3 -2.8Q590.1 -1.9 589.6 -1.2Q589.1 -0.5 588.2 -0.2Q587.4 0.2 586.3 0.2Z M594.2 0.0V-9.5H595.7V-5.5H600.5V-9.5H602.0V0.0H600.5V-4.2H595.7V0.0Z"/></g>
  </g>
</svg>